<mxfile host="app.diagrams.net" agent="Mozilla/5.0 (Windows NT 10.0; Win64; x64) AppleWebKit/537.36 (KHTML, like Gecko) Chrome/128.0.0.0 Safari/537.36" version="24.7.14">
  <diagram name="Page-1" id="iBRlb1mhVoszrk2-aHQL">
    <mxGraphModel dx="2074" dy="725" grid="1" gridSize="10" guides="1" tooltips="1" connect="1" arrows="1" fold="1" page="1" pageScale="1" pageWidth="850" pageHeight="1100" math="0" shadow="0">
      <root>
        <mxCell id="0" />
        <mxCell id="1" parent="0" />
        <mxCell id="-mjvh53arfqLqoCf8BJp-1" value="Actor" style="shape=umlActor;verticalLabelPosition=bottom;verticalAlign=top;html=1;outlineConnect=0;fillColor=#EA6B66;" parent="1" vertex="1">
          <mxGeometry x="410" y="120" width="30" height="60" as="geometry" />
        </mxCell>
        <mxCell id="-mjvh53arfqLqoCf8BJp-2" value="To-Do App User" style="text;html=1;align=center;verticalAlign=middle;whiteSpace=wrap;rounded=0;" parent="1" vertex="1">
          <mxGeometry x="395" y="90" width="60" height="30" as="geometry" />
        </mxCell>
        <mxCell id="-mjvh53arfqLqoCf8BJp-7" value="" style="endArrow=classic;html=1;rounded=0;entryX=0.5;entryY=0;entryDx=0;entryDy=0;exitX=0.506;exitY=1.278;exitDx=0;exitDy=0;exitPerimeter=0;" parent="1" source="-mjvh53arfqLqoCf8BJp-14" target="_Eg-LZfy4czVI2hD-TEB-12" edge="1">
          <mxGeometry width="50" height="50" relative="1" as="geometry">
            <mxPoint x="425" y="260" as="sourcePoint" />
            <mxPoint x="620" y="360" as="targetPoint" />
          </mxGeometry>
        </mxCell>
        <mxCell id="-mjvh53arfqLqoCf8BJp-13" value="" style="endArrow=classic;html=1;rounded=0;" parent="1" edge="1">
          <mxGeometry width="50" height="50" relative="1" as="geometry">
            <mxPoint x="425" y="200" as="sourcePoint" />
            <mxPoint x="425" y="250" as="targetPoint" />
          </mxGeometry>
        </mxCell>
        <mxCell id="-mjvh53arfqLqoCf8BJp-14" value="Views, adds, and changes the status of to-do items using" style="text;html=1;align=center;verticalAlign=middle;whiteSpace=wrap;rounded=0;fontSize=8;" parent="1" vertex="1">
          <mxGeometry x="395" y="260" width="60" height="30" as="geometry" />
        </mxCell>
        <mxCell id="-mjvh53arfqLqoCf8BJp-18" value="" style="rounded=0;whiteSpace=wrap;html=1;fillColor=#CCCCCC;" parent="1" vertex="1">
          <mxGeometry x="335" y="630" width="180" height="90" as="geometry" />
        </mxCell>
        <mxCell id="-mjvh53arfqLqoCf8BJp-19" value="Stores to-do items and their statuses" style="text;html=1;align=center;verticalAlign=middle;whiteSpace=wrap;rounded=0;fontSize=10;" parent="1" vertex="1">
          <mxGeometry x="365.5" y="670" width="120" height="30" as="geometry" />
        </mxCell>
        <mxCell id="-mjvh53arfqLqoCf8BJp-20" value="Trello [Software System]" style="text;html=1;align=center;verticalAlign=middle;whiteSpace=wrap;rounded=0;" parent="1" vertex="1">
          <mxGeometry x="373" y="630" width="105" height="30" as="geometry" />
        </mxCell>
        <mxCell id="-mjvh53arfqLqoCf8BJp-21" value="" style="endArrow=classic;html=1;rounded=0;entryX=0.5;entryY=0;entryDx=0;entryDy=0;" parent="1" target="-mjvh53arfqLqoCf8BJp-20" edge="1">
          <mxGeometry width="50" height="50" relative="1" as="geometry">
            <mxPoint x="426" y="550" as="sourcePoint" />
            <mxPoint x="425" y="510" as="targetPoint" />
          </mxGeometry>
        </mxCell>
        <mxCell id="-mjvh53arfqLqoCf8BJp-22" value="" style="endArrow=classic;html=1;rounded=0;exitX=0.5;exitY=1;exitDx=0;exitDy=0;entryX=0.5;entryY=0;entryDx=0;entryDy=0;" parent="1" source="_Eg-LZfy4czVI2hD-TEB-10" target="-mjvh53arfqLqoCf8BJp-23" edge="1">
          <mxGeometry width="50" height="50" relative="1" as="geometry">
            <mxPoint x="425" y="450" as="sourcePoint" />
            <mxPoint x="426" y="560" as="targetPoint" />
          </mxGeometry>
        </mxCell>
        <mxCell id="-mjvh53arfqLqoCf8BJp-23" value="Stores and retrieves to-do items using" style="text;html=1;align=center;verticalAlign=middle;whiteSpace=wrap;rounded=0;fontSize=8;" parent="1" vertex="1">
          <mxGeometry x="396" y="520" width="60" height="30" as="geometry" />
        </mxCell>
        <mxCell id="-mjvh53arfqLqoCf8BJp-24" value="Software System" style="rounded=0;whiteSpace=wrap;html=1;fillColor=#EA6B66;" parent="1" vertex="1">
          <mxGeometry x="295" y="980" width="120" height="60" as="geometry" />
        </mxCell>
        <mxCell id="-mjvh53arfqLqoCf8BJp-25" value="Software System, Existing System" style="rounded=0;whiteSpace=wrap;html=1;fillColor=#CCCCCC;" parent="1" vertex="1">
          <mxGeometry x="450" y="980" width="120" height="60" as="geometry" />
        </mxCell>
        <mxCell id="-mjvh53arfqLqoCf8BJp-26" value="Actor" style="shape=umlActor;verticalLabelPosition=bottom;verticalAlign=top;html=1;outlineConnect=0;" parent="1" vertex="1">
          <mxGeometry x="230" y="980" width="30" height="60" as="geometry" />
        </mxCell>
        <mxCell id="-mjvh53arfqLqoCf8BJp-27" value="" style="endArrow=classic;html=1;rounded=0;" parent="1" source="-mjvh53arfqLqoCf8BJp-37" edge="1">
          <mxGeometry width="50" height="50" relative="1" as="geometry">
            <mxPoint x="600" y="1009.47" as="sourcePoint" />
            <mxPoint x="740" y="1010" as="targetPoint" />
          </mxGeometry>
        </mxCell>
        <mxCell id="-mjvh53arfqLqoCf8BJp-36" value="" style="endArrow=classic;html=1;rounded=0;" parent="1" target="-mjvh53arfqLqoCf8BJp-37" edge="1">
          <mxGeometry width="50" height="50" relative="1" as="geometry">
            <mxPoint x="600" y="1009.47" as="sourcePoint" />
            <mxPoint x="740" y="1010" as="targetPoint" />
          </mxGeometry>
        </mxCell>
        <mxCell id="-mjvh53arfqLqoCf8BJp-37" value="Relationship" style="text;html=1;align=center;verticalAlign=middle;whiteSpace=wrap;rounded=0;fontSize=8;" parent="1" vertex="1">
          <mxGeometry x="640" y="995" width="60" height="30" as="geometry" />
        </mxCell>
        <mxCell id="-mjvh53arfqLqoCf8BJp-38" value="Diagram key" style="text;html=1;align=center;verticalAlign=middle;whiteSpace=wrap;rounded=0;fontSize=18;" parent="1" vertex="1">
          <mxGeometry x="230" y="920" width="110" height="30" as="geometry" />
        </mxCell>
        <mxCell id="_Eg-LZfy4czVI2hD-TEB-10" value="" style="rounded=0;whiteSpace=wrap;html=1;fillColor=#EA6B66;" parent="1" vertex="1">
          <mxGeometry x="335.5" y="370" width="180" height="90" as="geometry" />
        </mxCell>
        <mxCell id="_Eg-LZfy4czVI2hD-TEB-12" value="To-Do App [Software System]" style="text;html=1;align=center;verticalAlign=middle;whiteSpace=wrap;rounded=0;" parent="1" vertex="1">
          <mxGeometry x="373.5" y="370" width="105" height="30" as="geometry" />
        </mxCell>
        <mxCell id="RbaquCLyhIQVkRtYfmB6-2" value="Allows users to view, add, or change the status of to-do items" style="text;html=1;align=center;verticalAlign=middle;whiteSpace=wrap;rounded=0;fontSize=10;" parent="1" vertex="1">
          <mxGeometry x="366" y="410" width="120" height="30" as="geometry" />
        </mxCell>
      </root>
    </mxGraphModel>
  </diagram>
</mxfile>
